Coordinates
version=1
nRows=17
nColumns=24
inDegrees=yes

Units are S.I. units (second, meters, Newtons, ...)
Angles are in degrees.

endheader
time	pelvis_tilt	pelvis_list	pelvis_rotation	pelvis_tx	pelvis_ty	pelvis_tz	hip_flexion_r	hip_adduction_r	hip_rotation_r	knee_angle_r	ankle_angle_r	subtalar_angle_r	mtp_angle_r	hip_flexion_l	hip_adduction_l	hip_rotation_l	knee_angle_l	ankle_angle_l	subtalar_angle_l	mtp_angle_l	lumbar_extension	lumbar_bending	lumbar_rotation
      3.28000000	     -9.37705011	      1.82463730	     -5.13565732	     -1.20732088	     -0.04503355	      0.72035188	     -8.97282729	     -3.75322854	      7.61106374	     -9.81367460	     12.42629637	      2.78299369	     10.91534137	     41.00472415	     -3.33392263	     -6.18755358	    -23.90971475	      6.81350492	      6.68888464	    -10.60068524	      3.90699840	      1.71729112	      6.27022069
      3.28500000	     -9.58455221	      2.07373106	     -5.58374527	     -1.19903314	     -0.04640137	      0.72081698	     -8.87281130	     -4.08591491	      7.94469970	    -10.38142412	     12.29089445	      2.98186342	     11.05131959	     41.00808233	     -3.34402228	     -6.35772473	    -23.64618666	      6.81028277	      6.67229267	    -10.35024590	      4.22267923	      1.34822734	      6.69081307
      3.29000000	     -9.55714070	      2.40668543	     -5.93682037	     -1.19071422	     -0.04752173	      0.72112169	     -8.96671671	     -4.55772080	      7.74115491	    -11.01241811	     12.12069381	      3.70210818	     12.13140712	     40.74036504	     -3.18940599	     -6.58115502	    -23.39674025	      6.04677385	      6.44993071	     -8.03979959	      4.28662126	      0.85138027	      6.99753530
      3.29500000	     -9.74160981	      2.65785719	     -6.34354203	     -1.18226377	     -0.04885317	      0.72156223	     -8.80386660	     -4.88289080	      8.03835756	    -11.74445866	     11.90380113	      3.91388889	     12.26092371	     40.75831712	     -3.18048367	     -6.86662829	    -23.49079296	      5.95067482	      6.38816459	     -7.82887544	      4.60862585	      0.46871513	      7.34803377
      3.30000000	     -9.81870383	      2.98096497	     -6.61881101	     -1.17378580	     -0.05005028	      0.72175046	     -8.70640778	     -5.31855107	      7.86867811	    -12.51992069	     11.52823461	      4.43895044	     13.59958002	     40.65080411	     -2.98474052	     -7.06504617	    -23.55023120	      4.80542091	      5.96445663	     -5.00909340	      4.81996662	     -0.01376197	      7.56321229
      3.30500000	     -9.95606708	      3.21454119	     -6.98696137	     -1.16544405	     -0.05129581	      0.72197878	     -8.42396356	     -5.65669097	      7.87334802	    -13.52073453	     11.31175723	      5.15039741	     14.07525760	     40.68033139	     -2.93886337	     -7.28411042	    -23.92396864	      4.15599795	      5.69800758	     -3.70947972	      5.07046399	     -0.36810192	      7.87385907
      3.31000000	    -10.15359247	      3.57031868	     -7.24339871	     -1.15690015	     -0.05253139	      0.72208459	     -8.05651136	     -6.10775317	      7.77941945	    -14.55078680	     10.91627342	      5.73590667	     14.88716804	     40.80537743	     -2.70360633	     -7.44302968	    -24.41129044	      3.30252788	      5.30257448	     -2.40598389	      5.43639525	     -0.86127982	      8.07029729
      3.31500000	    -10.26654854	      3.86158403	     -7.40795630	     -1.14850315	     -0.05359635	      0.72215009	     -7.76616363	     -6.46155681	      7.82374163	    -15.58398157	     10.16866103	      5.87052388	     16.37871459	     40.86694491	     -2.43786246	     -7.32873688	    -24.90793371	      1.65757651	      4.66763872	      1.07523583	      5.67525410	     -1.32489495	      8.15399411
      3.32000000	    -10.48046934	      4.16809605	     -7.54281245	     -1.14021390	     -0.05475332	      0.72194885	     -7.22660926	     -6.85550572	      7.63979293	    -16.88055853	      9.67037953	      6.64401723	     17.19920215	     41.13950509	     -2.11170213	     -7.04739925	    -25.67007923	      0.47619491	      4.04778021	      2.94227450	      6.01077611	     -1.76252771	      8.19863177
      3.32500000	    -10.69372453	      4.57700528	     -7.61585760	     -1.13179932	     -0.05579120	      0.72189384	     -6.66204844	     -7.32412907	      7.50505629	    -18.18048521	      8.83103809	      7.01145102	     18.65131858	     41.44160622	     -1.66850115	     -6.74625435	    -26.47389417	     -0.87876620	      3.44815394	      5.43862407	      6.38092220	     -2.35227881	      8.22236651
      3.33000000	    -10.97580649	      5.00368275	     -7.63814199	     -1.12345545	     -0.05690697	      0.72159683	     -5.90428001	     -7.83246208	      7.20650439	    -19.71316356	      8.16248805	      7.86142220	     19.40164161	     41.90751567	     -1.13946827	     -6.25815249	    -27.49105373	     -1.58326026	      2.91673665	      6.22839534	      6.81767233	     -2.93355649	      8.19715401
      3.33500000	    -11.13921709	      5.43776491	     -7.57293329	     -1.11512284	     -0.05777436	      0.72127579	     -5.27969124	     -8.33761853	      6.97820843	    -21.16250902	      6.94986684	      8.18450881	     21.55960098	     42.24543501	     -0.50349119	     -5.63427653	    -28.42247914	     -2.60425404	      2.08825434	      8.08671249	      7.11587376	     -3.56932358	      8.03410759
      3.34000000	    -11.38442866	      5.90185369	     -7.52078320	     -1.10679521	     -0.05874533	      0.72088950	     -4.43241220	     -8.88783535	      6.68038240	    -22.87287513	      5.94057890	      8.96292692	     22.48103649	     42.71426920	      0.15002247	     -5.08230246	    -29.46807570	     -2.96938514	      1.31679057	      8.32983201	      7.51326414	     -4.20651626	      7.94232354
      3.34500000	    -11.49485560	      6.34126126	     -7.40507167	     -1.09849019	     -0.05950753	      0.72041192	     -3.72582867	     -9.42628014	      6.36723364	    -24.49835860	      4.39710868	      9.33086296	     24.93172052	     43.02818255	      0.86729276	     -4.52768246	    -30.47411118	     -3.10610338	      0.31588803	      7.80778799	      7.74108094	     -4.84785338	      7.73272274
      3.35000000	    -11.59958589	      6.82467272	     -7.25665471	     -1.09004548	     -0.06026333	      0.71988298	     -2.97788102	    -10.02195386	      6.04184982	    -26.19144601	      2.72299705	      9.75765121	     27.21893377	     43.31029333	      1.64691350	     -4.08536802	    -31.46924785	     -2.70049790	     -0.68413035	      5.70768219	      7.99363678	     -5.53769759	      7.50491850
      3.35500000	    -11.64556174	      7.30010119	     -7.11281500	     -1.08163397	     -0.06094277	      0.71932266	     -2.24039803	    -10.61993053	      5.76954453	    -27.92098377	      0.86606925	     10.15527574	     29.61558873	     43.48855474	      2.43465544	     -3.71554084	    -32.42215833	     -1.81338730	     -1.73003353	      1.98606590	      8.17157937	     -6.21705161	      7.29134397
      3.36000000	    -11.66106655	      7.81002557	     -6.94644850	     -1.07310935	     -0.06154105	      0.71879473	     -1.51200973	    -11.24663666	      5.52452331	    -29.64521129	     -1.23206946	     10.35602981	     32.04929857	     43.55540822	      3.27043954	     -3.39026076	    -33.27658262	     -0.45595365	     -2.67401393	     -3.14265942	      8.33580645	     -6.94464541	      7.11146252
